<svg height="40" viewBox="0 0 40 40" width="40" xmlns="http://www.w3.org/2000/svg"><path d="m686.5 95c2.065983 0 3.832458.7334996 5.299479 2.2005208 1.467021 1.4670213 2.200521 3.2334962 2.200521 5.2994792v25c0 2.065983-.7335 3.832458-2.200521 5.299479s-3.233496 2.200521-5.299479 2.200521h-4.895833v-15.494792h5.182291l.78125-6.041666h-5.963541v-3.854167c0-.972227.203991-1.701386.611979-2.1875s1.202251-.729167 2.382812-.729167l3.177084-.026041v-5.390625c-1.093756-.156251-2.638879-.234375-4.635417-.234375-2.361123 0-4.249125.694437-5.664063 2.083333-1.414937 1.388896-2.122395 3.350682-2.122395 5.885417v4.453125h-5.208334v6.041666h5.208334v15.494792h-13.854167c-2.065983 0-3.832458-.7335-5.299479-2.200521s-2.200521-3.233496-2.200521-5.299479v-25c0-2.065983.7335-3.8324579 2.200521-5.2994792 1.467021-1.4670212 3.233496-2.2005208 5.299479-2.2005208z" fill="#fff" fill-rule="evenodd" transform="translate(-654 -95)"/></svg>