<svg height="40" viewBox="0 0 40 40" width="40" xmlns="http://www.w3.org/2000/svg"><path d="m824.46875 128.802083v-16.875h-3.515625c.347224 1.093756.520833 2.230897.520833 3.411459 0 2.187511-.55555 4.20572-1.666666 6.054687-1.111117 1.848968-2.621519 3.311627-4.53125 4.388021-1.909732 1.076394-3.993045 1.614583-6.25 1.614583-3.420156 0-6.345474-1.176203-8.776042-3.528645-2.430568-2.352443-3.645833-5.195296-3.645833-8.528646 0-1.180562.173609-2.317703.520833-3.411459h-3.671875v16.875c0 .451391.151908.828992.455729 1.132813s.681422.455729 1.132813.455729h27.838541c.43403 0 .80729-.151908 1.119792-.455729s.46875-.681422.46875-1.132813zm-9.765625-8.359375c1.579869-1.527785 2.369792-3.368044 2.369792-5.520833s-.785583-3.988708-2.356771-5.507812c-1.571189-1.519105-3.467871-2.278646-5.690104-2.278646-2.204872 0-4.092874.759541-5.664063 2.278646-1.571188 1.519104-2.356771 3.355023-2.356771 5.507812s.785583 3.988708 2.356771 5.507813c1.571189 1.519104 3.459191 2.278645 5.664063 2.278645 2.222233 0 4.114575-.7552 5.677083-2.265625zm9.765625-14.895833v-4.296875c0-.486114-.173609-.907116-.520833-1.2630208-.347224-.3559046-.772567-.5338542-1.276042-.5338542h-4.53125c-.503475 0-.928818.1779496-1.276042.5338542-.347224.3559048-.520833.7769068-.520833 1.2630208v4.296875c0 .503475.173609.928818.520833 1.276042s.772567.520833 1.276042.520833h4.53125c.503475 0 .928818-.173609 1.276042-.520833s.520833-.772567.520833-1.276042zm4.53125-5.416667v29.739584c0 1.406257-.503467 2.612842-1.510417 3.619791-1.006949 1.00695-2.213534 1.510417-3.619791 1.510417h-29.739584c-1.406257 0-2.612842-.503467-3.619791-1.510417-1.00695-1.006949-1.510417-2.213534-1.510417-3.619791v-29.739584c0-1.4062567.503467-2.6128419 1.510417-3.6197913 1.006949-1.0069495 2.213534-1.5104167 3.619791-1.5104167h29.739584c1.406257 0 2.612842.5034672 3.619791 1.5104167 1.00695 1.0069494 1.510417 2.2135346 1.510417 3.6197913z" fill="#fff" fill-rule="evenodd" transform="translate(-789 -95)"/></svg>