<svg height="36" viewBox="0 0 45 36" width="45" xmlns="http://www.w3.org/2000/svg"><path d="m765.325 101.275c-1.256256 1.837509-2.774991 3.403119-4.55625 4.696875.01875.262501.028125.656247.028125 1.18125 0 2.437512-.356246 4.8703-1.06875 7.298437-.712504 2.428138-1.795305 4.757802-3.248438 6.989063-1.453132 2.231261-3.182802 4.204679-5.189062 5.920312-2.00626 1.715634-4.424986 3.08437-7.25625 4.106251-2.831264 1.02188-5.859359 1.532812-9.084375 1.532812-5.081275 0-9.731229-1.359361-13.95-4.078125.656253.075 1.387496.1125 2.19375.1125 4.218771 0 7.978108-1.293737 11.278125-3.88125-1.96876-.0375-3.731242-.642182-5.2875-1.814063-1.556258-1.17188-2.624997-2.667178-3.20625-4.485937.618753.09375 1.190622.140625 1.715625.140625.806254 0 1.603121-.103124 2.390625-.309375-2.100011-.431252-3.839056-1.476554-5.217187-3.135937-1.378132-1.659384-2.067188-3.585927-2.067188-5.779688v-.1125c1.275006.712504 2.643743 1.096875 4.10625 1.153125-1.237506-.825004-2.221871-1.903118-2.953125-3.234375s-1.096875-2.774992-1.096875-4.33125c0-1.650008.412496-3.178118 1.2375-4.584375 2.268761 2.793764 5.029671 5.029679 8.282812 6.707813 3.253142 1.678133 6.735919 2.610936 10.448438 2.798437-.150001-.712504-.225-1.406247-.225-2.08125 0-2.512513.885929-4.654679 2.657812-6.4265625 1.771884-1.7718839 3.91405-2.6578125 6.426563-2.6578125 2.625013 0 4.837491.9562404 6.6375 2.86875 2.04376-.393752 3.965616-1.1249947 5.765625-2.19375-.693753 2.1562608-2.02499 3.824994-3.99375 5.00625 1.743759-.187501 3.487491-.656246 5.23125-1.40625z" fill="#fff" fill-rule="evenodd" transform="translate(-721 -97)"/></svg>