<?xml version="1.0" encoding="utf-8"?>
<!-- Generator: Adobe Illustrator 22.0.1, SVG Export Plug-In . SVG Version: 6.00 Build 0)  -->
<svg version="1.1" id="Layer_1" xmlns="http://www.w3.org/2000/svg" xmlns:xlink="http://www.w3.org/1999/xlink" x="0px" y="0px"
	 viewBox="0 0 40 40" style="enable-background:new 0 0 40 40;" xml:space="preserve">
<title>fb</title>
<desc>Created with Sketch.</desc>
<g id="Homepage" transform="translate(-654.000000, -4294.000000)">
	<g id="Footer" transform="translate(0.000000, 4199.000000)">
		<path id="fb" class="icon" d="M686.5,95c2.1,0,3.8,0.7,5.3,2.2c1.5,1.5,2.2,3.2,2.2,5.3v25c0,2.1-0.7,3.8-2.2,5.3c-1.5,1.5-3.2,2.2-5.3,2.2
			h-4.9v-15.5h5.2l0.8-6h-6v-3.9c0-1,0.2-1.7,0.6-2.2c0.4-0.5,1.2-0.7,2.4-0.7l3.2,0v-5.4c-1.1-0.2-2.6-0.2-4.6-0.2
			c-2.4,0-4.2,0.7-5.7,2.1s-2.1,3.4-2.1,5.9v4.5h-5.2v6h5.2V135h-13.9c-2.1,0-3.8-0.7-5.3-2.2c-1.5-1.5-2.2-3.2-2.2-5.3v-25
			c0-2.1,0.7-3.8,2.2-5.3c1.5-1.5,3.2-2.2,5.3-2.2H686.5z" />
	</g>
</g>
</svg>
