<svg enable-background="new 0 0 40 40" viewBox="0 0 40 40" xmlns="http://www.w3.org/2000/svg"><path d="m824.5 128.8v-16.9h-3.5c.3 1.1.5 2.2.5 3.4 0 2.2-.6 4.2-1.7 6.1-1.1 1.8-2.6 3.3-4.5 4.4s-4 1.6-6.2 1.6c-3.4 0-6.3-1.2-8.8-3.5s-3.6-5.2-3.6-8.5c0-1.2.2-2.3.5-3.4h-3.7v16.9c0 .5.2.8.5 1.1s.7.5 1.1.5h27.8c.4 0 .8-.2 1.1-.5.3-.4.5-.7.5-1.2zm-9.8-8.4c1.6-1.5 2.4-3.4 2.4-5.5s-.8-4-2.4-5.5-3.5-2.3-5.7-2.3-4.1.8-5.7 2.3-2.4 3.4-2.4 5.5.8 4 2.4 5.5 3.5 2.3 5.7 2.3 4.1-.7 5.7-2.3zm9.8-14.9v-4.3c0-.5-.2-.9-.5-1.3s-.8-.5-1.3-.5h-4.5c-.5 0-.9.2-1.3.5s-.5.8-.5 1.3v4.3c0 .5.2.9.5 1.3.3.3.8.5 1.3.5h4.5c.5 0 .9-.2 1.3-.5.3-.3.5-.7.5-1.3zm4.5-5.4v29.7c0 1.4-.5 2.6-1.5 3.6s-2.2 1.5-3.6 1.5h-29.7c-1.4 0-2.6-.5-3.6-1.5s-1.5-2.2-1.5-3.6v-29.7c0-1.4.5-2.6 1.5-3.6s2.2-1.5 3.6-1.5h29.7c1.4 0 2.6.5 3.6 1.5s1.5 2.2 1.5 3.6z" transform="translate(-789 -95)"/></svg>