<?xml version="1.0" encoding="utf-8"?>
<!-- Generator: Adobe Illustrator 22.0.1, SVG Export Plug-In . SVG Version: 6.00 Build 0)  -->
<svg version="1.1" id="Layer_1" xmlns="http://www.w3.org/2000/svg" xmlns:xlink="http://www.w3.org/1999/xlink" x="0px" y="0px"
	 viewBox="0 0 40 40" style="enable-background:new 0 0 40 40;" xml:space="preserve">
<title>ig</title>
<desc>Created with Sketch.</desc>
<g id="Homepage" transform="translate(-789.000000, -4294.000000)">
	<g id="Footer" transform="translate(0.000000, 4199.000000)">
		<path id="ig" d="M824.5,128.8v-16.9H821c0.3,1.1,0.5,2.2,0.5,3.4c0,2.2-0.6,4.2-1.7,6.1c-1.1,1.8-2.6,3.3-4.5,4.4s-4,1.6-6.2,1.6
			c-3.4,0-6.3-1.2-8.8-3.5s-3.6-5.2-3.6-8.5c0-1.2,0.2-2.3,0.5-3.4h-3.7v16.9c0,0.5,0.2,0.8,0.5,1.1c0.3,0.3,0.7,0.5,1.1,0.5h27.8
			c0.4,0,0.8-0.2,1.1-0.5C824.3,129.6,824.5,129.3,824.5,128.8z M814.7,120.4c1.6-1.5,2.4-3.4,2.4-5.5s-0.8-4-2.4-5.5
			c-1.6-1.5-3.5-2.3-5.7-2.3c-2.2,0-4.1,0.8-5.7,2.3c-1.6,1.5-2.4,3.4-2.4,5.5s0.8,4,2.4,5.5c1.6,1.5,3.5,2.3,5.7,2.3
			C811.2,122.7,813.1,122,814.7,120.4z M824.5,105.5v-4.3c0-0.5-0.2-0.9-0.5-1.3s-0.8-0.5-1.3-0.5h-4.5c-0.5,0-0.9,0.2-1.3,0.5
			s-0.5,0.8-0.5,1.3v4.3c0,0.5,0.2,0.9,0.5,1.3c0.3,0.3,0.8,0.5,1.3,0.5h4.5c0.5,0,0.9-0.2,1.3-0.5
			C824.3,106.5,824.5,106.1,824.5,105.5z M829,100.1v29.7c0,1.4-0.5,2.6-1.5,3.6c-1,1-2.2,1.5-3.6,1.5h-29.7c-1.4,0-2.6-0.5-3.6-1.5
			c-1-1-1.5-2.2-1.5-3.6v-29.7c0-1.4,0.5-2.6,1.5-3.6s2.2-1.5,3.6-1.5h29.7c1.4,0,2.6,0.5,3.6,1.5S829,98.7,829,100.1z"/>
	</g>
</g>
</svg>
