<svg enable-background="new 0 0 45 36" viewBox="0 0 45 36" xmlns="http://www.w3.org/2000/svg"><path d="m765.3 101.3c-1.3 1.8-2.8 3.4-4.6 4.7v1.2c0 2.4-.4 4.9-1.1 7.3s-1.8 4.8-3.2 7c-1.5 2.2-3.2 4.2-5.2 5.9s-4.4 3.1-7.3 4.1c-2.8 1-5.9 1.5-9.1 1.5-5.1 0-9.7-1.4-14-4.1.7.1 1.4.1 2.2.1 4.2 0 8-1.3 11.3-3.9-2 0-3.7-.6-5.3-1.8s-2.6-2.7-3.2-4.5c.6.1 1.2.1 1.7.1.8 0 1.6-.1 2.4-.3-2.1-.4-3.8-1.5-5.2-3.1s-2.1-3.6-2.1-5.8v-.1c1.3.7 2.6 1.1 4.1 1.2-1.2-.8-2.2-1.9-3-3.2-.7-1.3-1.1-2.8-1.1-4.3 0-1.7.4-3.2 1.2-4.6 2.3 2.8 5 5 8.3 6.7s6.7 2.6 10.4 2.8c-.2-.7-.2-1.4-.2-2.1 0-2.5.9-4.7 2.7-6.4 1.8-1.8 3.9-2.7 6.4-2.7 2.6 0 4.8 1 6.6 2.9 2-.4 4-1.1 5.8-2.2-.7 2.2-2 3.8-4 5 2-.2 3.8-.7 5.5-1.4z" transform="translate(-721 -97)"/></svg>