<?xml version="1.0" encoding="utf-8"?>
<!-- Generator: Adobe Illustrator 22.0.1, SVG Export Plug-In . SVG Version: 6.00 Build 0)  -->
<svg version="1.1" id="Layer_1" xmlns="http://www.w3.org/2000/svg" xmlns:xlink="http://www.w3.org/1999/xlink" x="0px" y="0px"
	 viewBox="0 0 45 36" style="enable-background:new 0 0 45 36;" xml:space="preserve">
<title>twitter</title>
<desc>Created with Sketch.</desc>
<g id="Homepage" transform="translate(-721.000000, -4296.000000)">
	<g id="Footer" transform="translate(0.000000, 4199.000000)">
		<path id="twitter" d="M765.3,101.3c-1.3,1.8-2.8,3.4-4.6,4.7c0,0.3,0,0.7,0,1.2c0,2.4-0.4,4.9-1.1,7.3c-0.7,2.4-1.8,4.8-3.2,7
			c-1.5,2.2-3.2,4.2-5.2,5.9c-2,1.7-4.4,3.1-7.3,4.1c-2.8,1-5.9,1.5-9.1,1.5c-5.1,0-9.7-1.4-14-4.1c0.7,0.1,1.4,0.1,2.2,0.1
			c4.2,0,8-1.3,11.3-3.9c-2,0-3.7-0.6-5.3-1.8c-1.6-1.2-2.6-2.7-3.2-4.5c0.6,0.1,1.2,0.1,1.7,0.1c0.8,0,1.6-0.1,2.4-0.3
			c-2.1-0.4-3.8-1.5-5.2-3.1s-2.1-3.6-2.1-5.8v-0.1c1.3,0.7,2.6,1.1,4.1,1.2c-1.2-0.8-2.2-1.9-3-3.2c-0.7-1.3-1.1-2.8-1.1-4.3
			c0-1.7,0.4-3.2,1.2-4.6c2.3,2.8,5,5,8.3,6.7c3.3,1.7,6.7,2.6,10.4,2.8c-0.2-0.7-0.2-1.4-0.2-2.1c0-2.5,0.9-4.7,2.7-6.4
			c1.8-1.8,3.9-2.7,6.4-2.7c2.6,0,4.8,1,6.6,2.9c2-0.4,4-1.1,5.8-2.2c-0.7,2.2-2,3.8-4,5C761.8,102.5,763.6,102,765.3,101.3z"/>
	</g>
</g>
</svg>
